<?xml version="1.0" encoding="UTF-8"?>
<svg xmlns="http://www.w3.org/2000/svg" xmlns:xlink="http://www.w3.org/1999/xlink" width="20px" height="20px" viewBox="0 0 20 22" version="1.1">
<g id="surface1">
<path style=" stroke:none;fill-rule:nonzero;fill:rgb(0%,0%,0%);fill-opacity:1;" d="M 19.285156 1.375 L 13.929688 1.375 L 13.507812 0.570312 C 13.328125 0.222656 12.957031 0 12.550781 0 L 7.445312 0 C 7.039062 0 6.667969 0.21875 6.492188 0.570312 L 6.070312 1.375 L 0.714844 1.375 C 0.320312 1.375 0 1.683594 0 2.0625 L 0 3.4375 C 0 3.816406 0.320312 4.125 0.714844 4.125 L 19.285156 4.125 C 19.679688 4.125 20 3.816406 20 3.4375 L 20 2.0625 C 20 1.683594 19.679688 1.375 19.285156 1.375 Z M 2.375 20.066406 C 2.445312 21.152344 3.382812 22 4.511719 22 L 15.488281 22 C 16.617188 22 17.554688 21.152344 17.625 20.066406 L 18.570312 5.5 L 1.429688 5.5 Z M 2.375 20.066406 "/>
</g>
</svg>
